<svg xmlns="http://www.w3.org/2000/svg" xmlns:xlink="http://www.w3.org/1999/xlink" version="1.1" x="0px" y="0px" viewBox="0 0 100 125" enable-background="new 0 0 100 100" xml:space="preserve"><g><g><path d="M83.331,7.321H16.669c-3.953,0-7.169,3.217-7.169,7.17v41.396c0,3.953,3.216,7.17,7.169,7.17h12.833v3.172    c0,8.602,4.152,16.605,11.148,21.574v3.375c0,0.83,0.672,1.5,1.5,1.5s1.5-0.67,1.5-1.5v-4.164c0-0.502-0.251-0.971-0.669-1.25    c-6.562-4.365-10.479-11.67-10.479-19.535v-3.172h33.331v1.088c-6.326,0.744-11.25,6.139-11.25,12.662c0,0.828,0.672,1.5,1.5,1.5    s1.5-0.672,1.5-1.5c0-5.377,4.374-9.75,9.75-9.75c0.828,0,1.5-0.672,1.5-1.5v-4c0-4.646,1.54-7.43,2.831-8.945    c1.432-1.68,3.313-2.682,5.032-2.682c0.807,0,2.681,0.262,2.681,2.689c0,3.355,0.022,13.609,0.022,13.609    c0,7.867-3.918,15.17-10.48,19.535c-0.418,0.279-0.669,0.748-0.669,1.25v4.164c0,0.83,0.672,1.5,1.5,1.5s1.5-0.67,1.5-1.5v-3.375    c6.997-4.969,11.149-12.973,11.149-21.578c0,0-0.003-1.322-0.007-3.168h0.938c3.953,0,7.169-3.217,7.169-7.17V14.491    C90.5,10.538,87.284,7.321,83.331,7.321z M87.5,55.888c0,2.299-1.87,4.17-4.169,4.17h-0.944c-0.005-2.82-0.01-5.877-0.01-7.438    c0-3.404-2.283-5.689-5.681-5.689c-2.587,0-5.322,1.396-7.315,3.736c-1.465,1.719-3.171,4.715-3.482,9.391H16.669    c-2.299,0-4.169-1.871-4.169-4.17V14.491c0-2.299,1.87-4.17,4.169-4.17h66.662c2.299,0,4.169,1.871,4.169,4.17V55.888z     M28.25,25.091h43.5v-3h-43.5V25.091z M28.25,34.966h43.5v-3h-43.5V34.966z M28.25,44.841H50v-3H28.25V44.841z"/></g></g><text x="0" y="115" fill="#000000" font-size="5px" font-weight="bold" font-family="'Helvetica Neue', Helvetica, Arial-Unicode, Arial, Sans-serif">Created by Sergey Demushkin</text><text x="0" y="120" fill="#000000" font-size="5px" font-weight="bold" font-family="'Helvetica Neue', Helvetica, Arial-Unicode, Arial, Sans-serif">from the Noun Project</text></svg>