<svg xmlns="http://www.w3.org/2000/svg" xmlns:xlink="http://www.w3.org/1999/xlink" version="1.1" x="0px" y="0px" viewBox="0 0 100 125" enable-background="new 0 0 100 100" xml:space="preserve"><path d="M10.191,73.971c-0.832,0.961-1.784,4.244-2.514,7.207c11.004,2.994,23.619,4.855,37.105,5.24l-10.941-23.43  C33.842,62.988,14.607,68.869,10.191,73.971z M50.054,57.865c-3.333,0-6.036,2.703-6.036,6.037c0,3.332,2.703,6.035,6.036,6.035  c3.335,0,6.034-2.703,6.034-6.035C56.088,60.568,53.389,57.865,50.054,57.865z M50.91,22.494c4.076,0,6.536,2.23,6.536,6.92  c0.229,8.304-11.226,7.076-12.303,20.377v3.46h10.381v-2.924c1.307-9.302,13.993-7.302,13.993-21.988  c0-5.845-4.689-14.84-19.145-14.84c-11.304,0-18.455,7.996-18.686,18.992H42.99C42.99,27.033,45.375,22.494,50.91,22.494z   M89.809,73.971c-4.415-5.102-23.649-10.982-23.649-10.982l-10.942,23.43c13.487-0.385,26.102-2.246,37.105-5.24  C91.593,78.215,90.642,74.932,89.809,73.971z M50,73.244c-0.961,0-1.887-0.143-2.766-0.398l-2.398,13.572  C46.545,86.467,48.264,86.5,50,86.5s3.455-0.033,5.164-0.082l-2.396-13.572C51.889,73.102,50.962,73.244,50,73.244z"/><text x="0" y="115" fill="#000000" font-size="5px" font-weight="bold" font-family="'Helvetica Neue', Helvetica, Arial-Unicode, Arial, Sans-serif">Created by Sergey Demushkin</text><text x="0" y="120" fill="#000000" font-size="5px" font-weight="bold" font-family="'Helvetica Neue', Helvetica, Arial-Unicode, Arial, Sans-serif">from the Noun Project</text></svg>