<svg xmlns="http://www.w3.org/2000/svg" xmlns:xlink="http://www.w3.org/1999/xlink" version="1.1" x="0px" y="0px" viewBox="0 0 100 125" enable-background="new 0 0 100 100" xml:space="preserve"><path d="M62.456,42.325c0-1.542-1.25-2.79-2.789-2.79c-1.543,0-2.79,1.248-2.79,2.79s1.247,2.791,2.79,2.791  C61.206,45.116,62.456,43.867,62.456,42.325z M40.331,39.535c-1.543,0-2.791,1.248-2.791,2.79s1.248,2.791,2.791,2.791  c1.541,0,2.789-1.249,2.789-2.791S41.872,39.535,40.331,39.535z M63.499,37.193c0.104,0.035,0.216,0.055,0.322,0.055  c0.416,0,0.805-0.262,0.946-0.678c0.179-0.521-0.102-1.092-0.623-1.271c-2.602-0.889-5.537-0.889-8.137,0  c-0.522,0.18-0.803,0.747-0.623,1.271c0.18,0.521,0.75,0.8,1.271,0.623C58.84,36.448,61.316,36.448,63.499,37.193z M43.81,35.302  c-2.6-0.889-5.537-0.889-8.137,0c-0.523,0.179-0.803,0.747-0.623,1.271c0.18,0.522,0.751,0.799,1.27,0.622  c2.185-0.745,4.66-0.745,6.844,0c0.106,0.035,0.217,0.055,0.324,0.055c0.416,0,0.803-0.262,0.945-0.678  C44.613,36.049,44.333,35.48,43.81,35.302z M54.646,56.67h-9.294c-1.101,0-1.397,0.668-0.659,1.484c0,0,2.391,2.648,5.307,2.648  c2.918,0,5.309-2.648,5.309-2.648C56.045,57.338,55.745,56.67,54.646,56.67z M93.829,86.673h0.004  c-0.002-6.821-16.543-14.333-34.737-18.88c6.127-5.111,10.117-11.563,13.063-18.479c1.564-0.529,3.018-1.994,3.74-4.021  c0.982-2.738,0.295-5.541-1.51-6.691c0.229-1.666,0.434-3.408,0.629-5.256c1.891-18.021-6.32-28.008-25.019-26.438  c-4.916,0.409-8.133,3.149-8.133,3.149C28.86,7.215,23.387,20.006,24.977,33.348c0.221,1.832,0.443,3.565,0.686,5.229  c-1.844,1.124-2.559,3.951-1.566,6.718c0.744,2.077,2.248,3.556,3.852,4.054c3.773,9.334,7.44,14.291,12.953,18.443  C22.707,72.338,6.166,79.85,6.166,86.671l0,0C6.432,90.273,25.957,93.255,50,93.255s43.568-2.981,43.834-6.584c0,0,0,0.009,0,0  C93.834,86.663,93.829,86.673,93.829,86.673z M49.997,67.911c-8.256-0.001-21.791-13.313-21.791-33.693  c0,0,8.683-0.286,14.516-9.536c9.667,9.584,29.404,9.17,29.404,9.17C70.984,53.016,59.674,67.911,49.997,67.911z"/><text x="0" y="115" fill="#000000" font-size="5px" font-weight="bold" font-family="'Helvetica Neue', Helvetica, Arial-Unicode, Arial, Sans-serif">Created by Sergey Demushkin</text><text x="0" y="120" fill="#000000" font-size="5px" font-weight="bold" font-family="'Helvetica Neue', Helvetica, Arial-Unicode, Arial, Sans-serif">from the Noun Project</text></svg>