<svg xmlns="http://www.w3.org/2000/svg" xmlns:xlink="http://www.w3.org/1999/xlink" version="1.1" x="0px" y="0px" viewBox="0 0 100 125" enable-background="new 0 0 100 100" xml:space="preserve"><line fill="#000000" stroke="#FFFFFF" stroke-miterlimit="10" x1="84.25" y1="50.861" x2="84.25" y2="64.883"/><path d="M60.584,68.498L50.001,57.956L39.415,68.495l-18.4-10.619v15.893L49.998,90.5l0,0h0.003l0,0l28.986-16.731V57.87  L60.584,68.498z M38.955,64.973L49.998,53.97L21.015,37.234L9.969,48.238L38.955,64.973z M50.001,53.967L61.045,64.97l28.986-16.734  L78.987,37.231L50.001,53.967z M61.045,9.499L50.001,20.5l28.986,16.734L90.031,26.23L61.045,9.499z M38.955,9.499L9.969,26.233  l11.046,11.004l28.983-16.734L38.955,9.499z"/><text x="0" y="115" fill="#000000" font-size="5px" font-weight="bold" font-family="'Helvetica Neue', Helvetica, Arial-Unicode, Arial, Sans-serif">Created by Sergey Demushkin</text><text x="0" y="120" fill="#000000" font-size="5px" font-weight="bold" font-family="'Helvetica Neue', Helvetica, Arial-Unicode, Arial, Sans-serif">from the Noun Project</text></svg>