<svg xmlns="http://www.w3.org/2000/svg" xmlns:xlink="http://www.w3.org/1999/xlink" version="1.1" x="0px" y="0px" viewBox="-2057.901 342.249 100 125" enable-background="new -2057.901 342.249 100 100" xml:space="preserve"><g><circle cx="-2013.56" cy="378.097" r="2.678"/></g><g><circle cx="-1999.419" cy="378.097" r="2.678"/></g><g><path d="M-2000.984,387.048c-0.391-0.613-1.209-0.794-1.826-0.409c-0.014,0.009-1.387,0.85-3.624,0.85   c-2.241,0-3.724-0.844-3.768-0.869c-0.624-0.375-1.435-0.174-1.815,0.45c-0.38,0.626-0.181,1.441,0.445,1.821   c0.084,0.051,2.094,1.25,5.137,1.25c3.012,0,4.858-1.141,5.058-1.272C-2000.765,388.473-2000.593,387.662-2000.984,387.048z"/></g><path d="M-1978.417,413.375c0,0-3.666-12.924-2.839-25.285c0.087-1.304,0.268-2.6,0.365-3.903  c1.374-18.406-2.253-39.096-26.872-34.82c-27.826,4.833-25.776,38.815-19.23,57.603c0.004,0.011,0.008,0.021,0.011,0.031  c0.276,0.791,0.572,1.575,0.877,2.354c0.435,1.095,0.883,2.119,1.339,3.066c-2.445,6.282-3.866,13.935-3.866,22.282h6  c0-5.822,0.788-11.346,2.15-16.158c3.546,4.241,6.922,6.454,6.922,6.454s-5.676-17.048,3.438-22.433  c1.201-0.6,2.448-0.928,3.726-0.928c2.029,0,3.983,0.813,5.793,2.272c9.198,7.854-0.19,28.078-0.19,28.078s5.408-2.513,9.114-10.983  c0.97,4.2,1.519,8.846,1.519,13.699h6c0-3.205-0.215-6.304-0.61-9.267c-0.661-5.803-0.38-11.946,0.226-17.403  C-1981.391,411.609-1978.417,413.375-1978.417,413.375z M-2004.437,358.981c8.531,5.736,13.48,13.239,16.281,20.727  c-1.693,8.606-9.227,15.113-18.24,15.113c-7.901,0.001-14.664-5.004-17.353-12.036  C-2019.806,373.178-2013.724,363.633-2004.437,358.981z"/><text x="-2057.901" y="457.249" fill="#000000" font-size="5px" font-weight="bold" font-family="'Helvetica Neue', Helvetica, Arial-Unicode, Arial, Sans-serif">Created by Alina Oleynik</text><text x="-2057.901" y="462.249" fill="#000000" font-size="5px" font-weight="bold" font-family="'Helvetica Neue', Helvetica, Arial-Unicode, Arial, Sans-serif">from the Noun Project</text></svg>