<svg xmlns="http://www.w3.org/2000/svg" xmlns:xlink="http://www.w3.org/1999/xlink" version="1.1" x="0px" y="0px" viewBox="0 0 100 125" enable-background="new 0 0 100 100" xml:space="preserve"><path d="M63.59,37.154c0.105,0.035,0.217,0.055,0.322,0.055c0.416,0,0.805-0.262,0.947-0.678c0.178-0.521-0.101-1.092-0.623-1.271  c-2.601-0.889-5.537-0.889-8.138,0c-0.522,0.18-0.803,0.747-0.622,1.271c0.18,0.521,0.75,0.8,1.27,0.623  C58.929,36.409,61.406,36.409,63.59,37.154z M40.422,39.496c-1.541,0-2.791,1.248-2.791,2.79s1.25,2.791,2.791,2.791  s2.791-1.249,2.791-2.791S41.963,39.496,40.422,39.496z M62.549,42.286c0-1.542-1.25-2.79-2.791-2.79s-2.789,1.248-2.789,2.79  s1.248,2.791,2.789,2.791S62.549,43.828,62.549,42.286z M43.9,35.263c-2.6-0.889-5.537-0.889-8.137,0  c-0.523,0.179-0.803,0.747-0.623,1.271c0.179,0.522,0.75,0.799,1.27,0.622c2.184-0.745,4.66-0.745,6.844,0  c0.106,0.035,0.217,0.055,0.323,0.055c0.416,0,0.804-0.262,0.946-0.678C44.702,36.01,44.424,35.441,43.9,35.263z M58.72,67.811  c13.078-2.18,21.793-10.896,21.793-10.896s-6.537-13.076-6.537-23.978C73.976,15.5,63.076,6.781,50,6.781v0.014  c-13.078,0-23.978,8.708-23.978,26.146c0,10.897-6.539,23.977-6.539,23.977s8.72,8.717,21.796,10.896  C21.665,74.355,9.337,82.281,9.337,86.637l0,0h0.002C9.343,90.273,27.545,93.22,50,93.22c22.456,0,40.657-2.946,40.661-6.583l0,0  h0.002C90.664,82.277,78.338,74.352,58.72,67.811z M29.039,33.426c0,0,18.84,0.413,28.067-9.171  c5.565,9.25,13.854,9.537,13.854,9.537c0,20.38-12.92,33.69-20.8,33.69C40.926,67.484,30.131,52.59,29.039,33.426z M54.736,56.631  h-9.294c-1.101,0-1.397,0.668-0.66,1.484c0,0,2.392,2.648,5.308,2.648c2.918,0,5.309-2.648,5.309-2.648  C56.135,57.299,55.838,56.631,54.736,56.631z"/><text x="0" y="115" fill="#000000" font-size="5px" font-weight="bold" font-family="'Helvetica Neue', Helvetica, Arial-Unicode, Arial, Sans-serif">Created by Sergey Demushkin</text><text x="0" y="120" fill="#000000" font-size="5px" font-weight="bold" font-family="'Helvetica Neue', Helvetica, Arial-Unicode, Arial, Sans-serif">from the Noun Project</text></svg>