<?xml version="1.0" encoding="UTF-8" standalone="no"?>
<!-- Created with Inkscape (http://www.inkscape.org/) -->

<svg
   xmlns:dc="http://purl.org/dc/elements/1.1/"
   xmlns:cc="http://creativecommons.org/ns#"
   xmlns:rdf="http://www.w3.org/1999/02/22-rdf-syntax-ns#"
   xmlns:svg="http://www.w3.org/2000/svg"
   xmlns="http://www.w3.org/2000/svg"
   xmlns:sodipodi="http://sodipodi.sourceforge.net/DTD/sodipodi-0.dtd"
   xmlns:inkscape="http://www.inkscape.org/namespaces/inkscape"
   id="svg8522"
   version="1.1"
   inkscape:version="0.91 r13725"
   xml:space="preserve"
   width="981.86188"
   height="180.48203"
   viewBox="0 0 981.86188 180.48203"
   sodipodi:docname="symmetric_crypto-1.svg"><metadata
     id="metadata8528"><rdf:RDF><cc:Work
         rdf:about=""><dc:format>image/svg+xml</dc:format><dc:type
           rdf:resource="http://purl.org/dc/dcmitype/StillImage" /><dc:title></dc:title></cc:Work></rdf:RDF></metadata><defs
     id="defs8526" /><sodipodi:namedview
     pagecolor="#ffffff"
     bordercolor="#666666"
     borderopacity="1"
     objecttolerance="10"
     gridtolerance="10"
     guidetolerance="10"
     inkscape:pageopacity="0"
     inkscape:pageshadow="2"
     inkscape:window-width="1920"
     inkscape:window-height="1200"
     id="namedview8524"
     showgrid="false"
     inkscape:zoom="0.88148722"
     inkscape:cx="292.40965"
     inkscape:cy="77.593903"
     inkscape:window-x="1200"
     inkscape:window-y="0"
     inkscape:window-maximized="0"
     inkscape:current-layer="g8530" /><g
     id="g8530"
     inkscape:groupmode="layer"
     inkscape:label="symmetric_crypto"
     transform="matrix(1.25,0,0,-1.25,0,180.48203)"><g
       id="g8532"><path
         d="m 0,0 785.4895,0 0,144.38562 L 0,144.38562 0,0 Z"
         style="fill:#000000;fill-opacity:1;fill-rule:nonzero;stroke:none"
         id="path8534"
         inkscape:connector-curvature="0" /><g
         id="g8536"
         transform="matrix(1,0,0,-1,0,144.38562)"><path
           d="m -551.875,-655.691 1624.16,0 0,1181.145 -1624.16,0 0,-1181.145 z"
           style="fill:none;stroke:#000000;stroke-width:0.80000001;stroke-linecap:butt;stroke-linejoin:miter;stroke-miterlimit:4;stroke-dasharray:none;stroke-opacity:1"
           id="path8538"
           inkscape:connector-curvature="0" /></g><path
         d="m 116.891,27.581 c -0.672,-0.016 -1.227,0.527 -1.227,1.199 l 0,3.078 -22.098,-0.023 c -2.703,-0.035 -2.703,4.039 0,4 l 22.098,0.023 0,3.074 c -0.004,0.922 0.996,1.5 1.797,1.04 l 4.398,-2.536 4.391,-2.539 c 0.805,-0.461 0.805,-1.617 0,-2.078 l -4.391,-2.539 -4.394,-2.539 c -0.176,-0.098 -0.371,-0.152 -0.574,-0.16 z"
         style="fill:#ffffff;fill-opacity:1;fill-rule:evenodd;stroke:none"
         id="path8540"
         inkscape:connector-curvature="0" /><g
         id="g8542"
         transform="matrix(1,0,0,-1,0,144.38562)"><path
           d="m 143.703,78.668 143.684,0 0,63.719 -143.684,0 0,-63.719 z"
           style="fill:#2da074;fill-opacity:1;fill-rule:nonzero;stroke:#2da074;stroke-width:4;stroke-linecap:round;stroke-linejoin:round;stroke-miterlimit:4;stroke-dasharray:none;stroke-opacity:1"
           id="path8544"
           inkscape:connector-curvature="0" /></g><text
         transform="matrix(1,0,0,-1,184.7303,28.952699)"
         style="font-variant:normal;font-weight:bold;font-size:19.20000076px;font-family:'CMU Sans Serif';-inkscape-font-specification:CMUSansSerif-Bold;writing-mode:lr-tb;fill:#ffffff;fill-opacity:1;fill-rule:nonzero;stroke:none"
         id="text8546"><tspan
           x="0 13.4976 20.639999 30.24 41.0112 48.768002"
           y="0"
           sodipodi:role="line"
           id="tspan8548">Crypto</tspan></text>
<g
         id="g8550"
         transform="matrix(1,0,0,-1,0,144.38562)"><path
           d="m 76.289,110.527 c 0,-9.988 -8.601,-9.601 -8.601,-9.601 l -58.688,0 c 0,0 -8.602,-0.371 -8.602,9.601 0,9.973 8.602,9.602 8.602,9.602 l 58.688,0 c 0,0 8.601,0.387 8.601,-9.602 z"
           style="fill:#ff5ca8;fill-opacity:1;fill-rule:evenodd;stroke:#ff5ca8;stroke-width:0.80000001;stroke-linecap:round;stroke-linejoin:round;stroke-miterlimit:4;stroke-dasharray:none;stroke-opacity:1"
           id="path8552"
           inkscape:connector-curvature="0" /></g><text
         transform="matrix(1,0,0,-0.98040267,13.530259,31.449265)"
         style="font-variant:normal;font-weight:bold;font-size:9.0347023px;font-family:'DejaVu Sans';-inkscape-font-specification:DejaVuSans-Bold;writing-mode:lr-tb;fill:#ffffff;fill-opacity:1;fill-rule:nonzero;stroke:none"
         id="text8554"><tspan
           x="0 6.4598122 9.5496798 15.666173 18.756041 25.179714 28.323792 32.64238 38.767906 44.595287"
           y="0"
           sodipodi:role="line"
           id="tspan8556">plain text</tspan></text>
<g
         id="g8558"
         transform="matrix(1,0,0,-1,0,144.38562)"><path
           d="m 430.691,110.527 c 0,-9.988 -8.601,-9.601 -8.601,-9.601 l -58.688,0 c 0,0 -8.601,-0.371 -8.601,9.601 0,9.973 8.601,9.602 8.601,9.602 l 58.688,0 c 0,0 8.601,0.387 8.601,-9.602 z"
           style="fill:#f97860;fill-opacity:1;fill-rule:evenodd;stroke:#f97860;stroke-width:0.80000001;stroke-linecap:round;stroke-linejoin:round;stroke-miterlimit:4;stroke-dasharray:none;stroke-opacity:1"
           id="path8560"
           inkscape:connector-curvature="0" /></g><text
         transform="matrix(1,0,0,-0.98040267,366.41603,31.449265)"
         style="font-variant:normal;font-weight:bold;font-size:9.0347023px;font-family:'DejaVu Sans';-inkscape-font-specification:DejaVuSans-Bold;writing-mode:lr-tb;fill:#ffffff;fill-opacity:1;fill-rule:nonzero;stroke:none"
         id="text8562"><tspan
           x="0 5.3485436 8.4384117 14.925327 21.349001 27.474529 31.928637 36.247223 42.372753 48.200134"
           y="0"
           sodipodi:role="line"
           id="tspan8564">ciphertext</tspan></text>
<path
         d="m 329.59,27.581 c -0.676,-0.016 -1.231,0.527 -1.231,1.199 l 0,3.078 -22.093,-0.023 c -2.704,-0.035 -2.704,4.039 0,4 l 22.093,0.023 0,3.074 c 0,0.922 1,1.5 1.801,1.04 l 4.395,-2.536 4.394,-2.539 c 0.801,-0.461 0.801,-1.617 0,-2.078 l -8.789,-5.078 c -0.172,-0.098 -0.371,-0.152 -0.57,-0.16 z"
         style="fill:#ffffff;fill-opacity:1;fill-rule:evenodd;stroke:none"
         id="path8566"
         inkscape:connector-curvature="0" /><g
         id="g8568"
         transform="matrix(1,0,0,-0.980403,0,144.38562)"><path
           d="m 253.488,10.196 -8.597,-9.794 -58.692,0 -8.597,9.794 8.597,9.793 58.692,0 8.597,-9.793 z"
           style="fill:#f29318;fill-opacity:1;fill-rule:evenodd;stroke:#f29318;stroke-width:0.80795598;stroke-linecap:round;stroke-linejoin:round;stroke-miterlimit:4;stroke-dasharray:none;stroke-opacity:1"
           id="path8570"
           inkscape:connector-curvature="0" /></g><text
         transform="matrix(1,0,0,-0.98040267,205.78222,131.98051)"
         style="font-variant:normal;font-weight:bold;font-size:9.0347023px;font-family:'DejaVu Sans';-inkscape-font-specification:DejaVuSans-Bold;writing-mode:lr-tb;fill:#ffffff;fill-opacity:1;fill-rule:nonzero;stroke:none"
         id="text8572"><tspan
           x="0 6.8392696 12.964797"
           y="0"
           sodipodi:role="line"
           id="tspan8574">Key</tspan></text>
<path
         d="m 209.27,88.358 c -0.016,0.676 0.523,1.231 1.199,1.231 l 3.074,0 -0.02,22.093 c -0.039,2.704 4.036,2.708 4,0 l 0.02,-22.093 3.074,0 c 0.926,0 1.504,-1 1.043,-1.801 l -2.539,-4.395 -2.535,-4.394 c -0.465,-0.801 -1.621,-0.801 -2.082,0 l -2.539,4.394 -2.535,4.395 c -0.102,0.176 -0.157,0.371 -0.16,0.57 z"
         style="fill:#ffffff;fill-opacity:1;fill-rule:evenodd;stroke:none"
         id="path8576"
         inkscape:connector-curvature="0" /><path
         d="m 471.293,27.581 c -0.676,-0.016 -1.231,0.527 -1.231,1.199 l 0,3.078 -22.093,-0.023 c -2.703,-0.035 -2.707,4.039 0,4 l 22.093,0.023 0,3.074 c 0,0.922 1,1.5 1.801,1.04 l 4.395,-2.536 4.394,-2.539 c 0.801,-0.461 0.801,-1.617 0,-2.078 l -8.789,-5.078 c -0.175,-0.098 -0.371,-0.152 -0.57,-0.16 z"
         style="fill:#ffffff;fill-opacity:1;fill-rule:evenodd;stroke:none"
         id="path8578"
         inkscape:connector-curvature="0" /><g
         id="g8580"
         transform="matrix(1,0,0,-1,0,144.38562)"><path
           d="m 498.102,78.668 143.684,0 0,63.719 -143.684,0 0,-63.719 z"
           style="fill:#2da074;fill-opacity:1;fill-rule:nonzero;stroke:#2da074;stroke-width:4;stroke-linecap:round;stroke-linejoin:round;stroke-miterlimit:4;stroke-dasharray:none;stroke-opacity:1"
           id="path8582"
           inkscape:connector-curvature="0" /></g><text
         transform="matrix(1,0,0,-1,539.1303,28.952699)"
         style="font-variant:normal;font-weight:bold;font-size:19.20000076px;font-family:'CMU Sans Serif';-inkscape-font-specification:CMUSansSerif-Bold;writing-mode:lr-tb;fill:#ffffff;fill-opacity:1;fill-rule:nonzero;stroke:none"
         id="text8584"><tspan
           x="0 13.4976 20.639999 30.24 41.0112 48.768002"
           y="0"
           sodipodi:role="line"
           id="tspan8586">Crypto</tspan></text>
<path
         d="m 683.988,27.581 c -0.672,-0.016 -1.226,0.527 -1.226,1.199 l 0,3.078 -22.098,-0.023 c -2.703,-0.035 -2.703,4.039 0,4 l 22.098,0.023 -0.004,3.074 c 0,0.922 1,1.5 1.801,1.04 l 4.394,-2.536 4.395,-2.539 c 0.8,-0.461 0.804,-1.617 0,-2.078 l -4.391,-2.539 -4.395,-2.539 c -0.175,-0.098 -0.371,-0.152 -0.574,-0.16 z"
         style="fill:#ffffff;fill-opacity:1;fill-rule:evenodd;stroke:none"
         id="path8588"
         inkscape:connector-curvature="0" /><g
         id="g8590"
         transform="matrix(1,0,0,-1,0,144.38562)"><path
           d="m 785.09,110.527 c 0,-9.988 -8.602,-9.601 -8.602,-9.601 l -58.687,0 c 0,0 -8.602,-0.371 -8.602,9.601 0,9.973 8.602,9.602 8.602,9.602 l 58.687,0 c 0,0 8.602,0.387 8.602,-9.602 z"
           style="fill:#ff5ca8;fill-opacity:1;fill-rule:evenodd;stroke:#ff5ca8;stroke-width:0.80000001;stroke-linecap:round;stroke-linejoin:round;stroke-miterlimit:4;stroke-dasharray:none;stroke-opacity:1"
           id="path8592"
           inkscape:connector-curvature="0" /></g><text
         transform="matrix(1,0,0,-0.98040267,722.33026,31.449265)"
         style="font-variant:normal;font-weight:bold;font-size:9.0347023px;font-family:'DejaVu Sans';-inkscape-font-specification:DejaVuSans-Bold;writing-mode:lr-tb;fill:#ffffff;fill-opacity:1;fill-rule:nonzero;stroke:none"
         id="text8594"><tspan
           x="0 6.4598122 9.5496798 15.666173 18.756041 25.179714 28.323792 32.64238 38.767906 44.595287"
           y="0"
           sodipodi:role="line"
           id="tspan8596">plain text</tspan></text>
<g
         id="g8598"
         transform="matrix(1,0,0,-0.980403,0,144.38562)"><path
           d="m 607.891,10.196 -8.602,-9.794 -58.687,0 -8.602,9.794 8.602,9.793 58.687,0 8.602,-9.793 z"
           style="fill:#f29318;fill-opacity:1;fill-rule:evenodd;stroke:#f29318;stroke-width:0.80795598;stroke-linecap:round;stroke-linejoin:round;stroke-miterlimit:4;stroke-dasharray:none;stroke-opacity:1"
           id="path8600"
           inkscape:connector-curvature="0" /></g><text
         transform="matrix(1,0,0,-0.98040267,560.18222,131.98051)"
         style="font-variant:normal;font-weight:bold;font-size:9.0347023px;font-family:'DejaVu Sans';-inkscape-font-specification:DejaVuSans-Bold;writing-mode:lr-tb;fill:#ffffff;fill-opacity:1;fill-rule:nonzero;stroke:none"
         id="text8602"><tspan
           x="0 6.8392696 12.964797"
           y="0"
           sodipodi:role="line"
           id="tspan8604">Key</tspan></text>
<path
         d="m 563.668,88.358 c -0.016,0.676 0.527,1.231 1.199,1.231 l 3.078,0 -0.023,22.093 c -0.035,2.704 4.039,2.708 4,0 l 0.023,-22.093 3.071,0 c 0.925,0 1.504,-1 1.043,-1.801 l -2.539,-4.395 -2.536,-4.394 c -0.461,-0.801 -1.617,-0.801 -2.078,0 l -5.078,8.789 c -0.101,0.176 -0.156,0.371 -0.16,0.57 z"
         style="fill:#ffffff;fill-opacity:1;fill-rule:evenodd;stroke:none"
         id="path8606"
         inkscape:connector-curvature="0" /></g><rect
       style="opacity:1;fill:#000000;fill-opacity:1;stroke:#000000;stroke-width:4;stroke-linecap:round;stroke-linejoin:round;stroke-miterlimit:4;stroke-dasharray:none;stroke-dashoffset:0;stroke-opacity:1"
       id="rect9148"
       width="382.08154"
       height="346.68683"
       x="441.98032"
       y="-212.36836"
       transform="scale(1,-1)" /></g></svg>